# AST/ASF file generated using VICON BodyLanguage
# -----------------------------------------------
:version 1.10
:name VICON
:units
  mass 1.0
  length 0.45
  angle deg
:documentation
   .ast/.asf automatically generated from VICON data using
   VICON BodyBuilder and BodyLanguage model FoxedUp or BRILLIANT.MOD
:root
   order TX TY TZ RX RY RZ
   axis XYZ
   position 0 0 0  
   orientation 0 0 0 
:bonedata
  begin
     id 1 
     name lhipjoint
     direction 0.561001 -0.76473 0.316963 
     length 2.4722 
     axis 0 0 0  XYZ
  end
  begin
     id 2 
     name lfemur
     direction 0.34202 -0.939693 0  
     length 7.59403  
     axis 0 0 20  XYZ
    dof rx ry rz
    limits (-160.0 20.0)
           (-70.0 70.0)
           (-60.0 70.0)
  end
  begin
     id 3 
     name ltibia
     direction 0.34202 -0.939693 0   
     length 7.89655   
     axis 0 0 20   XYZ
    dof rx
    limits (-10.0 170.0)
  end
  begin
     id 4 
     name lfoot
     direction 0.061296 -0.168409 0.98381   
     length 2.73287   
     axis -90 7.62852e-016 20   XYZ
    dof rx rz
    limits (-45.0 90.0)
           (-70.0 20.0)
  end
  begin
     id 5 
     name ltoes
     direction 1.53547e-011 -4.21984e-011 1   
     length 1.37057   
     axis -90 7.62852e-016 20   XYZ
    dof rx
    limits (-90.0 20.0)
  end
  begin
     id 6 
     name rhipjoint
     direction -0.559611 -0.765599 0.317323   
     length 2.46939  
     axis 0 0 0  XYZ 
  end
  begin
     id 7 
     name rfemur
     direction -0.34202 -0.939693 0   
     length 7.53712   
     axis 0 0 -20   XYZ
    dof rx ry rz
    limits (-160.0 20.0)
           (-70.0 70.0)
           (-70.0 60.0)
  end
  begin
     id 8 
     name rtibia
     direction -0.34202 -0.939693 0   
     length 8.12549   
     axis 0 0 -20   XYZ
    dof rx
    limits (-10.0 170.0)
 end
 begin
     id 9 
     name rfoot
     direction -0.066984 -0.184037 0.980634   
     length 2.67541  
     axis -90 -7.62852e-016 -20   XYZ
    dof rx rz
    limits (-45.0 90.0)
           (-20.0 70.0)
  end
  begin
     id 10 
     name rtoes
     direction -1.53549e-011 -4.21786e-011 1   
     length 1.34085   
     axis -90 -7.62852e-016 -20   XYZ
    dof rx
    limits (-90.0 20.0)
  end
  begin
     id 11 
     name lowerback
     direction -0.0522728 0.992594 -0.109658   
     length 2.05633   
     axis 0 0 0   XYZ
    dof rx ry rz
    limits (-20.0 45.0)
           (-30.0 30.0)
           (-30.0 30.0)
  end
  begin
     id 12 
     name upperback
     direction 0.00589338 0.999977 0.00335704   
     length 2.05845   
     axis 0 0 0   XYZ
    dof rx ry rz
    limits (-20.0 45.0)
           (-30.0 30.0)
           (-30.0 30.0)
  end
  begin
     id 13 
     name thorax
     direction 0.0292928 0.998059 0.0549487   
     length 2.09281   
     axis 0 0 0   XYZ
    dof rx ry rz
    limits (-20.0 45.0)
           (-30.0 30.0)
           (-30.0 30.0)
  end
  begin
     id 14 
     name lowerneck
     direction 0.0356368 0.980775 0.191858   
     length 1.84767   
     axis 0 0 0   XYZ
    dof rx ry rz
    limits (-20.0 45.0)
           (-30.0 30.0)
           (-30.0 30.0)
  end
  begin
     id 15 
     name upperneck
     direction -0.0227605 0.98931 -0.14404   
     length 1.89582   
     axis 0 0 0   XYZ
    dof rx ry rz
    limits (-20.0 45.0)
           (-30.0 30.0)
           (-30.0 30.0)
  end
  begin
     id 16
     name head
     direction -0.00932985 0.997511 -0.0698904  
     length 1.90213  
     axis 0 0 0   XYZ
    dof rx ry rz
    limits (-20.0 45.0)
           (-30.0 30.0)
           (-30.0 30.0)
  end
  begin
     id 17 
     name lclavicle
     direction 0.873442 0.479511 0.0846686  
     length 3.41193  
     axis 0 0 0   XYZ
    dof ry rz
    limits (-20.0 10.0)
           (0.0 20.0)
  end
  begin
     id 18 
     name lhumerus
     direction 1 -4.4897e-011 -5.62117e-018   
     length 5.59864   
     axis 180 -30 -90   XYZ
    dof rx ry rz
    limits (-60.0 90.0)
           (-90.0 90.0)
           (-90.0 90.0)
  end
  begin
     id 19
     name lradius
     direction 1 -4.48966e-011 -6.26295e-027   
     length 3.59542   
     axis 180 -30 -90   XYZ
    dof rx
    limits (-10.0 170.0)
  end
  begin
     id 20
     name lwrist
     direction 1 -4.48947e-011 -1.74096e-026   
     length 1.79771   
     axis 1.04567e-014 90 90   XYZ
    dof ry
    limits (-180.0 0.0)
 end
  begin
     id 21 
     name lhand
     direction 1 -4.49085e-011 -3.48469e-026   
     length 0.572014   
     axis 2.22196e-014 90 90   XYZ
    dof rx rz
    limits (-90.0 90.0)
           (-45.0 45.0)
  end
  begin
     id 22 
     name lfingers
     direction 1 -4.48884e-011 -6.96135e-026   
     length 0.461173   
     axis 4.44383e-014 90 90   XYZ
    dof rx
    limits (0.0 90.0)
  end
  begin
     id 23
     name lthumb
     direction 0.707107 -6.34976e-011 0.707107   
     length 0.662154   
     axis -90 45 -5.4397e-014   XYZ
    dof rx rz
    limits (-45.0 45.0)
           (-45.0 45.0)
  end
  begin
     id 24 
     name rclavicle
     direction -0.890242 0.443271 0.104786   
     length 3.46753  
     axis 0 0 0   XYZ 
    dof ry rz
    limits (-10.0 20.0)
           (-20.0 0.0)
  end
  begin
     id 25 
     name rhumerus
     direction -1 -4.48963e-011 -5.41723e-018  
     length 5.8094   
     axis 180 30 90   XYZ
    dof rx ry rz
    limits (-90.0 60.0)
           (-90.0 90.0)
           (-90.0 90.0)
  end
  begin
     id 26 
     name rradius
     direction -1 -4.48958e-011 -6.51059e-027   
     length 3.66953   
     axis 180 30 90   XYZ
    dof rx
    limits (-10.0 170.0)
  end
  begin
     id 27 
     name rwrist
     direction -1 -4.48975e-011 -1.74124e-026   
     length 1.83476   
     axis 1.04567e-014 -90 -90   XYZ
    dof ry
    limits (-180.0 0.0)
  end
  begin
     id 28
     name rhand
     direction -1 -4.49013e-011 -3.48326e-026   
     length 0.57843   
     axis 2.22196e-014 -90 -90   XYZ
    dof rx rz
    limits (-90.0 90.0)
           (-45.0 45.0)
  end
  begin
     id 29
     name rfingers
     direction -1 -4.49023e-011 -6.9669e-026   
     length 0.466345   
     axis 4.44383e-014 -90 -90   XYZ
    dof rx
    limits (0.0 90.0)
  end
  begin
     id 30
     name rthumb
     direction -0.707107 -6.34926e-011 0.707107   
     length 0.669581   
     axis -90 -45 5.4397e-014   XYZ
    dof rx rz
    limits (-45.0 45.0)
           (-45.0 45.0)
  end
:hierarchy
  begin
    root lhipjoint rhipjoint lowerback
    lhipjoint lfemur
    lfemur ltibia
    ltibia lfoot
    lfoot ltoes
    rhipjoint rfemur
    rfemur rtibia
    rtibia rfoot
    rfoot rtoes
    lowerback upperback
    upperback thorax
    thorax lowerneck lclavicle rclavicle
    lowerneck upperneck
    upperneck head
    lclavicle lhumerus
    lhumerus lradius
    lradius lwrist
    lwrist lhand lthumb
    lhand lfingers
    rclavicle rhumerus
    rhumerus rradius
    rradius rwrist
    rwrist rhand rthumb
    rhand rfingers
  end

#!OML:ASF H:\SkateBoarding\Project 1\Capture day 1\Session 1\Skater.ASF
:FULLY-SPECIFIED
:DEGREES
228
root 2.73808 19.3575 57.1718 -3.01501 20.4731 -9.49266
lowerback 9.93479 4.57643 -6.25286
upperback 1.16019 5.21259 -4.18335
thorax -4.50928 2.65483 -1.59947
lowerneck -12.0828 -8.7997 -4.01223
upperneck 43.4469 -14.0051 4.6905
head 19.5218 -5.50691 0.278209
rclavicle 5.1684e-014 6.36111e-015
rhumerus -15.565 14.6716 -98.2571
rradius 33.9391
rwrist -4.92293
rhand -32.8528 -1.19812
rfingers 7.12502
rthumb -6.07214 -31.0911
lclavicle 5.1684e-014 6.36111e-015
lhumerus -35.4625 15.0159 50.2005
lradius 36.3787
lwrist 30.4888
lhand -29.3664 17.8841
lfingers 7.12502
lthumb -2.70556 47.8467
rfemur -21.3773 -0.458279 24.8629
rtibia 24.2037
rfoot -15.8592 -3.82087
rtoes -8.16274
lfemur -18.5836 -16.2546 -0.748019
ltibia 40.8939
lfoot -42.8997 20.4925
ltoes -21.8589
229
root 2.49373 19.3578 57.4353 -3.0125 20.1378 -9.56187
lowerback 9.72045 4.56315 -6.19536
upperback 1.11989 5.21996 -4.15876
thorax -4.42987 2.65735 -1.58965
lowerneck -12.0133 -8.83264 -4.03126
upperneck 43.5339 -14.0012 4.54063
head 19.5387 -5.53092 0.212682
rclavicle 4.69132e-014 3.49861e-014
rhumerus -15.4353 14.2887 -99.1121
rradius 32.7348
rwrist -4.12414
rhand -32.4949 -1.41875
rfingers 7.12502
rthumb -5.72652 -31.3214
lclavicle 4.69132e-014 3.49861e-014
lhumerus -35.6886 15.5495 51.0949
lradius 35.5283
lwrist 29.7137
lhand -28.9187 17.8827
lfingers 7.12502
lthumb -2.27319 47.8504
rfemur -21.0899 -0.373509 25.0796
rtibia 24.1689
rfoot -16.0112 -3.41944
rtoes -8.25224
lfemur -18.0915 -16.5204 -0.661164
ltibia 40.6753
lfoot -43.4962 20.5472
ltoes -21.5723
230
root 2.2507 19.3598 57.6928 -2.85459 19.9505 -9.47391
lowerback 9.52313 4.50439 -6.20262
upperback 1.01484 5.15072 -4.2201
thorax -4.42402 2.62431 -1.62865
lowerneck -11.8871 -8.85656 -4.04321
upperneck 43.6347 -13.9975 4.41895
head 19.5526 -5.55175 0.16259
rclavicle -5.40694e-014 9.54166e-015
rhumerus -15.3775 13.7488 -100.029
rradius 31.5611
rwrist -3.23989
rhand -32.2135 -1.59114
rfingers 7.12502
rthumb -5.45485 -31.5009
lclavicle -5.40694e-014 9.54166e-015
lhumerus -35.8472 16.3211 51.8531
lradius 34.4954
lwrist 28.645
lhand -28.3982 17.6775
lfingers 7.12502
lthumb -1.77048 47.6499
rfemur -20.9414 -0.575978 25.1339
rtibia 24.1605
rfoot -16.0841 -2.94883
rtoes -8.65289
lfemur -17.7706 -16.8679 -0.710263
ltibia 40.4246
lfoot -44.0131 20.5645
ltoes -21.2982
231
root 2.00511 19.3597 57.9508 -2.78837 19.7017 -9.43457
lowerback 9.3864 4.45421 -6.21994
upperback 0.940175 5.08947 -4.23965
thorax -4.42483 2.59516 -1.62346
lowerneck -11.8893 -8.86522 -4.00802
upperneck 43.7915 -13.9473 4.19891
head 19.6163 -5.55265 0.0592737
rclavicle 1.34378e-013 -6.67916e-014
rhumerus -15.3545 13.6315 -100.887
rradius 30.5407
rwrist -2.72206
rhand -31.7588 -2.04454
rfingers 7.12502
rthumb -5.01585 -31.9652
lclavicle 1.34378e-013 -6.67916e-014
lhumerus -35.9571 17.1563 52.6522
lradius 33.4793
lwrist 27.7042
lhand -27.9588 17.7423
lfingers 7.12502
lthumb -1.34615 47.7178
rfemur -20.7155 -0.606662 25.2356
rtibia 24.1821
rfoot -16.1726 -2.50003
rtoes -8.29412
lfemur -17.3207 -17.0847 -0.713594
ltibia 40.1395
lfoot -44.5311 20.5316
ltoes -21.1064
232
root 1.75654 19.358 58.2066 -2.8204 19.5134 -9.59239
lowerback 9.29884 4.38682 -6.02947
upperback 0.859822 5.02259 -4.24828
thorax -4.44188 2.56006 -1.7241
lowerneck -11.7638 -8.89293 -3.96609
upperneck 43.8619 -13.9757 4.09969
head 19.6098 -5.57617 0.0043217
rclavicle 2.06736e-014 -5.08889e-014
rhumerus -15.3844 13.2076 -101.826
rradius 29.5392
rwrist -1.78588
rhand -31.1505 -2.60642
rfingers 7.12502
rthumb -4.42847 -32.5401
lclavicle 2.06736e-014 -5.08889e-014
lhumerus -36.0149 18.0415 53.347
lradius 32.4173
lwrist 26.638
lhand -27.5124 17.8354
lfingers 7.12502
lthumb -0.914967 47.8132
rfemur -20.4665 -0.670026 25.5463
rtibia 24.2342
rfoot -16.4855 -2.16043
rtoes -8.90103
lfemur -16.8872 -17.2498 -0.503017
ltibia 39.8399
lfoot -44.7759 20.5765
ltoes -21.1041
233
root 1.5051 19.3563 58.4633 -2.79367 19.2362 -9.64457
lowerback 9.10677 4.35232 -6.043
upperback 0.827236 4.99178 -4.23286
thorax -4.37098 2.54488 -1.68181
lowerneck -11.7367 -8.92335 -4.0573
upperneck 43.9371 -14.0175 4.10496
head 19.6681 -5.6082 0.012235
rclavicle 6.32135e-014 6.36111e-014
rhumerus -15.3681 13.3939 -102.602
rradius 28.6833
rwrist -1.32562
rhand -30.5555 -3.05396
rfingers 7.12502
rthumb -3.85389 -32.9989
lclavicle 6.32135e-014 6.36111e-014
lhumerus -35.9394 19.0655 54.1073
lradius 31.2774
lwrist 25.5743
lhand -28.1343 18.3
lfingers 7.12502
lthumb -1.51565 48.2743
rfemur -20.2153 -0.614543 25.7724
rtibia 24.2418
rfoot -16.7898 -1.72908
rtoes -9.10232
lfemur -16.438 -17.3607 -0.381532
ltibia 39.5612
lfoot -45.0602 20.615
ltoes -21.1917
234
root 1.2532 19.3548 58.718 -2.75685 18.9847 -9.68436
lowerback 8.95792 4.29247 -6.07327
upperback 0.750815 4.91781 -4.23603
thorax -4.36907 2.50969 -1.65036
lowerneck -11.6351 -8.91841 -4.05007
upperneck 44.0324 -13.9868 4.00707
head 19.6852 -5.61227 -0.0259602
rclavicle -1.94809e-014 -6.36111e-014
rhumerus -15.5184 13.3627 -103.466
rradius 28.0003
rwrist -0.546908
rhand -29.5651 -3.81785
rfingers 7.12502
rthumb -2.89747 -33.7779
lclavicle -1.94809e-014 -6.36111e-014
lhumerus -35.9497 20.2505 54.7282
lradius 30.1845
lwrist 24.3185
lhand -27.5128 18.5926
lfingers 7.12502
lthumb -0.915328 48.5704
rfemur -19.9604 -0.594383 25.9783
rtibia 24.2864
rfoot -17.0757 -1.33682
rtoes -9.23454
lfemur -15.9881 -17.4414 -0.277918
ltibia 39.2795
lfoot -45.3192 20.6286
ltoes -21.3844
235
root 1.00234 19.3551 58.9634 -2.62606 18.5654 -9.9158
lowerback 8.76145 4.30629 -5.7962
upperback 0.584992 4.97038 -4.24443
thorax -4.41014 2.53284 -1.81065
lowerneck -11.5037 -8.97702 -4.07965
upperneck 44.1182 -14.0901 4.00782
head 19.718 -5.66262 -0.0369489
rclavicle -5.04913e-014 3.49861e-014
rhumerus -15.7441 13.1807 -104.315
rradius 27.4517
rwrist 0.347594
rhand -28.0813 -4.57183
rfingers 7.12502
rthumb -1.46439 -34.5466
lclavicle -5.04913e-014 3.49861e-014
lhumerus -35.8939 21.3702 55.3304
lradius 29.048
lwrist 22.6005
lhand -26.4448 18.4792
lfingers 7.12502
lthumb 0.116184 48.4589
rfemur -19.9315 -0.585745 26.408
rtibia 24.3095
rfoot -17.0866 -0.888825
rtoes -9.23835
lfemur -15.7393 -17.4686 0.124217
ltibia 39.0305
lfoot -45.6297 20.4687
ltoes -21.0039
236
root 0.757366 19.3578 59.206 -2.39633 18.465 -9.66995
lowerback 8.57575 4.17859 -6.01573
upperback 0.526654 4.78955 -4.32829
thorax -4.37575 2.44753 -1.74188
lowerneck -11.5321 -8.96436 -3.87771
upperneck 44.1822 -14.0586 3.79835
head 19.7095 -5.64633 -0.167568
rclavicle 2.5842e-014 1.27222e-014
rhumerus -15.9693 13.9264 -105.1
rradius 27.1563
rwrist 0.666143
rhand -26.8737 -5.31372
rfingers 7.12502
rthumb -0.298136 -35.2933
lclavicle 2.5842e-014 1.27222e-014
lhumerus -35.8588 22.5075 56.0905
lradius 28.2187
lwrist 21.564
lhand -26.1584 19.1644
lfingers 7.12502
lthumb 0.392798 49.1438
rfemur -19.8501 -0.919579 26.3024
rtibia 24.3721
rfoot -16.8561 -0.00394811
rtoes -6.45597
lfemur -15.4945 -17.8176 -0.0448403
ltibia 38.7539
lfoot -45.9562 20.3569
ltoes -20.6155
237
root 0.500677 19.3564 59.4538 -2.47921 18.2225 -10.0159
lowerback 8.48752 4.17529 -5.70684
upperback 0.461742 4.82003 -4.30077
thorax -4.37167 2.45779 -1.88243
lowerneck -11.3525 -9.05308 -4.05504
upperneck 44.217 -14.2384 3.97534
head 19.7459 -5.73107 -0.0825783
rclavicle 3.22031e-014 3.18055e-014
rhumerus -16.2511 14.2181 -105.858
rradius 27.0181
rwrist 1.08182
rhand -25.2807 -6.18377
rfingers 7.12502
rthumb 1.24043 -36.1599
lclavicle 3.22031e-014 3.18055e-014
lhumerus -35.5914 23.3981 56.9399
lradius 27.3374
lwrist 20.5208
lhand -25.7435 19.8622
lfingers 7.12502
lthumb 0.79351 49.8405
rfemur -19.6295 -0.842758 26.8638
rtibia 24.4643
rfoot -17.3302 0.256241
rtoes -7.2891
lfemur -15.1132 -17.9484 0.471049
ltibia 38.486
lfoot -46.0413 20.1847
ltoes -20.4081
238
root 0.250343 19.3592 59.6953 -2.38912 18.0631 -10.0621
lowerback 8.34516 4.07313 -5.72063
upperback 0.402573 4.6929 -4.27777
thorax -4.3554 2.39596 -1.8262
lowerneck -11.3598 -9.05404 -3.87957
upperneck 44.2947 -14.2021 3.72795
head 19.7368 -5.72211 -0.224925
rclavicle 3.18055e-014 -2.8625e-014
rhumerus -16.6555 15.0169 -106.629
rradius 27.0515
rwrist 1.41467
rhand -23.7594 -6.87275
rfingers 7.12502
rthumb 2.70971 -36.8353
lclavicle 3.18055e-014 -2.8625e-014
lhumerus -35.513 24.2272 57.9175
lradius 26.7885
lwrist 19.7058
lhand -25.4623 20.879
lfingers 7.12502
lthumb 1.06505 50.8561
rfemur -19.5589 -0.860588 27.0493
rtibia 24.6288
rfoot -17.4169 0.554711
rtoes -6.46408
lfemur -14.7928 -18.0827 0.629352
ltibia 38.1666
lfoot -46.1424 19.9922
ltoes -20.1623
239
root 0.0015297 19.3615 59.9344 -2.2132 17.9327 -10.0349
lowerback 8.18649 4.0162 -5.70264
upperback 0.294941 4.62279 -4.37309
thorax -4.36914 2.36172 -1.91969
lowerneck -11.215 -9.1244 -3.87871
upperneck 44.3404 -14.3533 3.77775
head 19.7461 -5.78261 -0.225932
rclavicle -6.04305e-014 6.36111e-015
rhumerus -17.1419 15.6091 -107.5
rradius 27.2544
rwrist 1.63725
rhand -22.2478 -7.51933
rfingers 7.12502
rthumb 4.16953 -37.4583
lclavicle -6.04305e-014 6.36111e-015
lhumerus -35.32 24.4637 59.1025
lradius 26.4904
lwrist 19.2326
lhand -25.2054 21.8915
lfingers 7.12502
lthumb 1.31323 51.8673
rfemur -19.5618 -1.00245 27.1664
rtibia 24.7987
rfoot -17.5521 0.729905
rtoes -7.0136
lfemur -14.5429 -18.2403 0.705943
ltibia 37.8231
lfoot -46.2111 19.9319
ltoes -20.3352
240
root -0.253454 19.3622 60.1735 -2.16719 17.739 -10.1666
lowerback 8.04867 3.91929 -5.72737
upperback 0.268183 4.50526 -4.29539
thorax -4.32664 2.30456 -1.80096
lowerneck -11.1694 -9.13881 -3.98493
upperneck 44.3365 -14.377 3.81671
head 19.7516 -5.81052 -0.193902
rclavicle 3.53837e-014 5.08889e-014
rhumerus -17.6954 17.3829 -108.287
rradius 27.7085
rwrist 0.906791
rhand -20.748 -8.1673
rfingers 7.12502
rthumb 5.61765 -38.0728
lclavicle 3.53837e-014 5.08889e-014
lhumerus -35.1144 25.0208 60.3564
lradius 26.1778
lwrist 18.6536
lhand -25.1451 22.8697
lfingers 7.12502
lthumb 1.3714 52.845
rfemur -19.4884 -0.922672 27.4571
rtibia 25.0215
rfoot -17.8927 0.949706
rtoes -7.38299
lfemur -14.1974 -18.2631 0.961458
ltibia 37.4587
lfoot -46.2711 19.7072
ltoes -20.0273
241
root -0.506009 19.366 60.4129 -2.15553 17.8359 -10.0762
lowerback 8.01218 3.79362 -5.88815
upperback 0.307909 4.32921 -4.31107
thorax -4.2728 2.21972 -1.7022
lowerneck -11.2128 -9.24285 -4.1237
upperneck 44.3505 -14.5366 3.8551
head 19.8096 -5.89234 -0.191444
rclavicle -2.46493e-014 -3.18055e-015
rhumerus -18.2765 19.0314 -109.068
rradius 28.32
rwrist 0.0508331
rhand -19.1627 -8.74254
rfingers 7.12502
rthumb 7.14814 -38.6018
lclavicle -2.46493e-014 -3.18055e-015
lhumerus -34.7201 25.1172 61.8662
lradius 26.0068
lwrist 18.3183
lhand -25.0996 23.6138
lfingers 7.12502
lthumb 1.41533 53.5888
rfemur -19.2904 -0.843562 27.4359
rtibia 25.2568
rfoot -18.5042 1.15561
rtoes -7.30151
lfemur -13.8386 -18.5718 0.94803
ltibia 37.0595
lfoot -46.201 19.6338
ltoes -20.0609
